<svg id="visual" viewBox="0 0 1280 500" width="1280" height="500" xmlns="http://www.w3.org/2000/svg" xmlns:xlink="http://www.w3.org/1999/xlink" version="1.1"><rect x="0" y="0" width="1280" height="500" fill="#5259f4"></rect><defs><linearGradient id="grad1_0" x1="60.9%" y1="100%" x2="100%" y2="0%"><stop offset="-1.1999999999999993%" stop-color="#fdfdfd" stop-opacity="1"></stop><stop offset="101.2%" stop-color="#fdfdfd" stop-opacity="1"></stop></linearGradient></defs><defs><linearGradient id="grad1_1" x1="60.9%" y1="100%" x2="100%" y2="0%"><stop offset="-1.1999999999999993%" stop-color="#fdfdfd" stop-opacity="1"></stop><stop offset="101.2%" stop-color="#b6a8fa" stop-opacity="1"></stop></linearGradient></defs><defs><linearGradient id="grad1_2" x1="60.9%" y1="100%" x2="100%" y2="0%"><stop offset="-1.1999999999999993%" stop-color="#5259f4" stop-opacity="1"></stop><stop offset="101.2%" stop-color="#b6a8fa" stop-opacity="1"></stop></linearGradient></defs><defs><linearGradient id="grad2_0" x1="0%" y1="100%" x2="39.1%" y2="0%"><stop offset="-1.1999999999999993%" stop-color="#fdfdfd" stop-opacity="1"></stop><stop offset="101.2%" stop-color="#fdfdfd" stop-opacity="1"></stop></linearGradient></defs><defs><linearGradient id="grad2_1" x1="0%" y1="100%" x2="39.1%" y2="0%"><stop offset="-1.1999999999999993%" stop-color="#b6a8fa" stop-opacity="1"></stop><stop offset="101.2%" stop-color="#fdfdfd" stop-opacity="1"></stop></linearGradient></defs><defs><linearGradient id="grad2_2" x1="0%" y1="100%" x2="39.1%" y2="0%"><stop offset="-1.1999999999999993%" stop-color="#b6a8fa" stop-opacity="1"></stop><stop offset="101.2%" stop-color="#5259f4" stop-opacity="1"></stop></linearGradient></defs><g transform="translate(1280, 500)"><path d="M-400 0C-368.2 -32.2 -336.4 -64.3 -324.3 -105.4C-312.2 -146.4 -319.7 -196.4 -292.9 -212.8C-266 -229.1 -204.8 -211.8 -175.2 -241.1C-145.5 -270.4 -147.5 -346.2 -123.6 -380.4C-99.7 -414.7 -49.8 -407.3 0 -400L0 0Z" fill="#8b80f8"></path><path d="M-266.7 0C-245.5 -21.4 -224.3 -42.9 -216.2 -70.2C-208.1 -97.6 -213.1 -131 -195.2 -141.9C-177.3 -152.7 -136.5 -141.2 -116.8 -160.7C-97 -180.2 -98.4 -230.8 -82.4 -253.6C-66.5 -276.4 -33.2 -271.6 0 -266.7L0 0Z" fill="#dbd2fc"></path><path d="M-133.3 0C-122.7 -10.7 -112.1 -21.4 -108.1 -35.1C-104.1 -48.8 -106.6 -65.5 -97.6 -70.9C-88.7 -76.4 -68.3 -70.6 -58.4 -80.4C-48.5 -90.1 -49.2 -115.4 -41.2 -126.8C-33.2 -138.2 -16.6 -135.8 0 -133.3L0 0Z" fill="#fdfdfd"></path></g><g transform="translate(0, 0)"><path d="M400 0C401.5 45.3 403 90.7 380.4 123.6C357.8 156.6 311.2 177.1 279.9 203.4C248.6 229.6 232.7 261.6 207.5 285.6C182.3 309.6 147.7 325.6 111.6 343.3C75.4 361.1 37.7 380.5 0 400L0 0Z" fill="#8b80f8"></path><path d="M266.7 0C267.7 30.2 268.7 60.4 253.6 82.4C238.6 104.4 207.5 118.1 186.6 135.6C165.8 153.1 155.2 174.4 138.3 190.4C121.5 206.4 98.5 217.1 74.4 228.9C50.3 240.7 25.1 253.7 0 266.7L0 0Z" fill="#dbd2fc"></path><path d="M133.3 0C133.8 15.1 134.3 30.2 126.8 41.2C119.3 52.2 103.7 59 93.3 67.8C82.9 76.5 77.6 87.2 69.2 95.2C60.8 103.2 49.2 108.5 37.2 114.4C25.1 120.4 12.6 126.8 0 133.3L0 0Z" fill="#fdfdfd"></path></g></svg>